<?xml version="1.0" standalone="no"?>
<!DOCTYPE svg PUBLIC "-//W3C//DTD SVG 20010904//EN"
 "http://www.w3.org/TR/2001/REC-SVG-20010904/DTD/svg10.dtd">
<svg version="1.0" xmlns="http://www.w3.org/2000/svg"
 width="16.000000pt" height="16.000000pt" viewBox="0 0 16.000000 16.000000"
 preserveAspectRatio="xMidYMid meet">
<metadata>
Created by homemade
</metadata>
<g transform="translate(0.000000,16.000000) scale(0.002462,-0.002462)"
fill="#000000" stroke="none">
<path d="M2686 5603 c-10 -10 -16 -12 -12 -6 5 9 2 11 -8 7 -9 -3 -14 -10 -11
-14 3 -5 0 -12 -6 -16 -7 -4 -9 -3 -5 4 3 6 2 13 -4 17 -9 6 -15 -8 -11 -29 1
-5 -4 -4 -13 3 -10 8 -16 9 -21 1 -3 -5 0 -10 7 -11 7 0 4 -4 -7 -8 -12 -5
-23 -4 -28 3 -4 6 -5 -1 -2 -15 5 -21 2 -27 -15 -32 -12 -3 -20 -9 -17 -14 2
-4 0 -19 -5 -33 -10 -24 -10 -24 -19 -5 -6 14 -7 10 -3 -14 4 -23 3 -31 -5
-27 -7 5 -9 1 -5 -8 4 -9 1 -16 -6 -16 -7 0 -10 -7 -6 -15 3 -8 1 -15 -5 -15
-6 0 -8 -7 -5 -16 3 -8 2 -13 -3 -10 -5 3 -11 -1 -15 -9 -3 -8 0 -15 7 -15 8
0 8 -3 -2 -9 -7 -5 -10 -14 -7 -20 4 -6 2 -11 -4 -11 -7 0 -10 -6 -7 -13 5
-15 -18 -39 -28 -29 -5 4 -3 -2 2 -12 8 -15 6 -28 -8 -53 -10 -18 -18 -34 -17
-36 5 -9 -15 -46 -23 -41 -5 3 -7 9 -5 13 3 4 -1 8 -9 8 -8 0 -11 -5 -8 -11 3
-6 0 -6 -7 1 -9 8 -20 9 -37 2 -14 -5 -30 -6 -36 -2 -6 4 -24 8 -39 10 -43 4
-52 7 -60 18 -5 6 -8 5 -8 -2 0 -8 -13 -13 -31 -13 -16 0 -28 4 -25 9 7 11
-13 9 -31 -2 -8 -5 -13 -3 -13 3 0 8 -6 8 -20 0 -15 -8 -20 -8 -20 1 0 9 -3 9
-14 0 -10 -8 -16 -9 -21 -1 -4 7 -13 7 -27 -1 -16 -8 -19 -8 -13 1 6 9 2 9
-14 1 -16 -9 -21 -9 -21 0 0 8 -5 7 -17 -2 -15 -12 -16 -12 -8 1 7 13 6 13 -7
2 -12 -9 -18 -10 -23 -2 -5 8 -11 8 -21 -1 -11 -9 -14 -9 -14 0 0 7 -5 9 -11
6 -17 -11 -59 -13 -59 -2 0 5 -7 4 -16 -4 -12 -10 -17 -10 -23 0 -5 7 -17 11
-27 9 -12 -2 -18 2 -16 10 1 8 -2 11 -8 7 -6 -3 -8 -10 -6 -13 2 -4 -13 -7
-34 -7 -21 0 -36 4 -33 9 4 5 1 6 -6 1 -19 -11 -71 -13 -78 -2 -3 5 -9 3 -13
-4 -7 -10 -11 -10 -24 0 -14 11 -16 11 -16 -5 -1 -18 -1 -18 -15 0 -15 20 -15
20 -16 0 0 -11 -3 -14 -6 -6 -4 10 -8 10 -19 1 -11 -9 -14 -9 -14 1 0 7 -12 0
-27 -16 -25 -27 -26 -27 -21 -6 6 20 4 22 -10 10 -23 -18 -32 -31 -26 -40 3
-4 -2 -5 -10 -2 -9 3 -17 -2 -21 -15 -3 -11 -12 -20 -18 -18 -7 1 -11 -4 -10
-10 2 -7 -5 -13 -15 -14 -11 0 -12 -2 -4 -6 9 -4 7 -10 -8 -23 -12 -10 -21
-22 -21 -27 1 -4 -2 -16 -5 -26 -5 -15 -8 -16 -22 -5 -15 12 -16 11 -4 -4 15
-19 7 -42 -11 -32 -9 5 -9 4 0 -6 13 -14 6 -43 -8 -34 -5 3 -6 -3 -2 -12 5
-13 3 -15 -8 -9 -12 8 -12 6 0 -8 11 -13 11 -17 1 -17 -8 0 -10 -3 -7 -6 8 -9
-11 -44 -24 -44 -6 0 -7 6 -3 13 6 10 4 10 -7 0 -7 -7 -17 -13 -22 -13 -4 0
-5 6 -1 13 6 9 4 9 -6 0 -11 -10 -19 -8 -39 10 l-26 22 19 -22 c21 -25 16 -29
-14 -13 -15 8 -22 4 -39 -23 -11 -17 -21 -28 -21 -23 0 13 -29 -26 -30 -39 0
-5 5 -3 10 5 6 9 10 10 10 3 0 -6 -7 -18 -15 -27 -14 -13 -13 -16 2 -26 17
-11 17 -11 0 -6 -10 3 -17 0 -18 -9 -1 -8 -3 -19 -4 -25 -1 -5 -3 -15 -4 -21
0 -5 -7 -7 -13 -3 -7 4 -4 -3 7 -16 l20 -23 -25 13 -25 13 20 -23 c11 -13 14
-20 6 -15 -11 6 -13 4 -8 -8 3 -8 0 -17 -6 -20 -8 -3 -12 -29 -12 -71 0 -36
-4 -66 -9 -66 -6 0 -6 -4 0 -10 10 -10 6 -102 -5 -96 -4 3 -13 0 -21 -5 -13
-8 -12 -9 2 -7 9 2 17 -1 17 -7 1 -5 -4 -10 -9 -10 -6 0 -14 -6 -19 -13 -7
-11 -9 -10 -14 3 -5 10 -3 14 5 9 7 -4 8 -3 4 5 -4 6 -12 9 -17 5 -5 -3 -7
-10 -3 -15 3 -6 -5 -8 -20 -5 -18 3 -29 -1 -36 -13 -5 -10 -7 -21 -4 -24 3 -3
-2 -4 -13 -2 -10 1 -27 -5 -38 -14 -18 -15 -19 -15 -6 2 12 15 11 17 -7 14
-12 -2 -25 -7 -29 -12 -5 -4 -2 -5 5 -1 6 4 12 3 12 -2 0 -6 -7 -12 -15 -16
-8 -3 -15 0 -15 7 0 8 -3 8 -9 -2 -5 -8 -14 -10 -21 -6 -9 6 -11 4 -5 -5 6
-10 4 -12 -10 -6 -16 6 -16 4 -4 -11 7 -10 9 -15 5 -11 -11 10 -38 -11 -30
-23 3 -5 2 -9 -3 -8 -4 1 -21 1 -37 0 -23 -1 -26 -4 -17 -15 10 -12 8 -13 -10
-9 -17 5 -20 3 -14 -8 7 -12 6 -12 -7 -1 -13 10 -18 10 -24 1 -4 -8 -3 -9 4
-5 7 4 12 0 12 -10 0 -10 -3 -14 -7 -11 -3 4 -13 -2 -20 -13 -8 -11 -19 -17
-25 -14 -8 5 -9 1 -5 -12 7 -18 7 -18 -8 0 -15 20 -15 20 -16 0 -1 -10 -1 -23
0 -29 1 -5 -6 -1 -15 10 -16 20 -16 20 -9 -4 5 -18 4 -22 -5 -16 -9 5 -11 4
-6 -3 4 -7 2 -12 -3 -12 -6 0 -10 -3 -10 -7 3 -19 -2 -27 -9 -16 -6 9 -11 7
-20 -7 -10 -17 -9 -18 6 -13 13 4 13 2 -3 -10 -18 -14 -21 -14 -27 1 -5 12 -7
13 -7 3 -1 -8 7 -24 16 -35 10 -12 11 -15 3 -8 -8 6 -18 12 -22 12 -11 0 -6
-23 7 -33 6 -5 -1 -5 -14 -2 -21 7 -23 5 -19 -19 4 -21 3 -24 -9 -15 -11 10
-12 8 -7 -6 6 -14 4 -16 -7 -11 -8 4 -6 1 4 -7 15 -13 16 -15 2 -21 -8 -3 -15
-12 -15 -21 0 -8 -5 -15 -11 -15 -5 0 -7 6 -3 13 4 6 3 8 -1 4 -14 -12 -15
-38 -2 -31 7 3 5 0 -4 -8 -9 -7 -14 -19 -12 -25 3 -7 1 -13 -4 -13 -5 0 -15 6
-23 13 -8 6 -7 3 2 -8 14 -17 15 -25 3 -57 -7 -21 -10 -38 -8 -38 3 0 -1 -8
-8 -17 -12 -14 -12 -15 0 -9 10 7 11 3 5 -15 -4 -13 -8 -33 -8 -44 -1 -11 -5
-26 -9 -32 -5 -8 -3 -13 4 -13 8 0 9 -3 0 -13 -6 -8 -8 -17 -4 -20 9 -10 10
-56 1 -51 -4 3 -8 0 -8 -5 0 -6 4 -11 8 -11 13 0 12 -43 -1 -59 -9 -12 -9 -13
1 -7 12 7 13 6 17 -32 1 -12 5 -25 9 -29 3 -3 0 -13 -7 -21 -9 -13 -9 -14 1
-8 6 4 12 2 12 -3 0 -6 -6 -11 -12 -11 -7 0 -5 -5 5 -11 9 -6 15 -15 11 -20
-3 -5 0 -17 7 -25 6 -8 9 -17 6 -21 -4 -3 0 -15 8 -27 8 -11 15 -31 15 -43 0
-12 9 -27 20 -33 11 -6 20 -18 20 -26 0 -8 4 -12 10 -9 10 6 15 -9 10 -30 -1
-5 2 -7 6 -3 4 4 13 3 21 -3 7 -6 13 -9 13 -5 0 3 8 -2 19 -13 10 -10 25 -21
32 -24 12 -5 11 -7 -1 -17 -13 -10 -13 -11 2 -6 25 7 33 -12 14 -33 -9 -10
-16 -23 -16 -29 0 -7 -7 -12 -17 -12 -9 0 -13 -3 -10 -7 4 -3 -1 -12 -11 -20
-9 -8 -11 -12 -5 -8 7 3 13 1 13 -4 0 -6 -4 -11 -10 -11 -5 0 -10 -7 -10 -15
0 -8 -5 -15 -11 -15 -5 0 -8 -4 -4 -9 3 -5 0 -15 -7 -23 -7 -7 -13 -19 -14
-25 -2 -29 -4 -34 -13 -28 -5 3 -13 0 -17 -6 -4 -8 -3 -9 4 -5 8 5 11 0 9 -14
-2 -12 -10 -26 -18 -31 -11 -7 -12 -9 0 -9 11 0 11 -3 1 -15 -6 -8 -9 -18 -6
-23 3 -5 -1 -21 -9 -36 -8 -14 -9 -24 -4 -20 8 4 8 0 2 -12 -5 -11 -9 -33 -9
-51 1 -17 -3 -29 -7 -26 -4 2 -5 -8 -1 -23 4 -17 3 -25 -3 -21 -5 3 -10 0 -10
-8 0 -8 5 -15 11 -15 6 0 4 -5 -4 -10 -8 -5 -10 -10 -4 -10 6 0 11 -7 11 -15
0 -8 -5 -15 -11 -15 -6 0 -5 -4 2 -9 8 -4 14 -12 14 -16 0 -4 -6 -12 -14 -16
-10 -7 -10 -9 0 -9 6 0 12 -5 12 -11 0 -5 -6 -7 -12 -3 -7 4 -4 -3 7 -16 l20
-23 -20 7 c-18 7 -18 5 3 -14 24 -23 29 -35 9 -25 -6 4 -4 0 5 -8 10 -8 18
-21 18 -29 0 -7 20 -34 45 -58 25 -24 45 -53 45 -65 0 -12 6 -27 13 -34 10
-11 9 -12 -2 -6 -9 5 -7 -1 4 -19 9 -14 15 -32 12 -40 -3 -8 1 -17 9 -20 9 -3
12 -11 9 -17 -4 -5 0 -18 8 -27 8 -9 20 -28 27 -41 10 -19 10 -22 -2 -16 -7 5
4 -8 24 -28 38 -35 50 -55 26 -41 -9 5 -9 2 1 -9 7 -9 20 -17 28 -17 7 0 16
-6 19 -14 3 -8 11 -13 18 -10 6 2 21 -4 33 -15 12 -11 33 -23 47 -27 14 -3 26
-11 26 -18 0 -6 5 -4 10 4 7 11 10 11 10 2 0 -7 4 -10 10 -7 6 3 10 0 10 -7 0
-10 2 -10 8 0 6 9 16 10 40 1 18 -6 32 -16 32 -22 0 -6 3 -8 6 -5 3 3 29 -2
57 -12 28 -10 56 -16 61 -13 5 4 6 -1 2 -12 -5 -14 -4 -15 7 -7 17 14 73 0 69
-17 -1 -7 2 -10 8 -6 6 3 7 11 4 17 -4 6 0 6 13 -1 11 -6 23 -7 27 -4 3 3 6 1
6 -5 0 -6 7 -9 17 -5 12 5 14 3 8 -8 -8 -12 -6 -12 8 0 12 9 17 10 17 2 0 -7
3 -10 8 -8 4 3 18 0 32 -6 14 -5 36 -12 50 -14 14 -2 26 -8 28 -13 2 -5 11 -6
20 -3 15 6 16 5 2 -12 -14 -17 -14 -17 6 -5 13 8 29 10 40 5 11 -4 25 -9 32
-11 8 -1 21 -6 30 -10 20 -8 30 -10 60 -12 13 -1 21 -6 18 -10 -6 -10 24 -9
41 1 7 4 16 0 22 -10 7 -13 10 -14 11 -4 0 11 5 9 22 -5 20 -17 21 -17 9 -1
-12 16 -12 18 0 15 8 -2 20 -10 27 -18 8 -8 11 -9 7 -2 -10 19 33 15 44 -5 6
-11 11 -13 11 -5 0 7 5 10 10 7 6 -4 7 -12 3 -18 -4 -8 -1 -7 9 1 11 9 18 10
23 2 3 -5 17 -10 31 -10 14 0 23 -4 20 -9 -3 -4 2 -8 12 -8 46 0 54 -3 48 -19
-6 -14 -4 -15 10 -4 13 11 17 11 24 0 5 -7 16 -15 24 -16 9 -1 13 2 10 8 -4 6
1 6 13 -1 11 -6 23 -7 27 -4 3 3 6 1 6 -5 0 -6 7 -9 15 -6 8 4 15 2 15 -2 0
-5 19 -10 42 -11 23 -2 45 -8 50 -15 6 -10 8 -10 8 0 0 7 5 10 10 7 6 -4 7
-12 4 -18 -5 -9 -4 -9 6 0 8 7 20 9 35 3 13 -5 25 -7 28 -4 2 2 10 -2 17 -11
7 -8 18 -15 24 -15 6 0 4 5 -4 10 -9 6 -10 10 -3 10 7 0 17 -8 22 -17 6 -11
11 -13 11 -5 0 7 5 10 10 7 6 -4 7 -12 3 -18 -4 -7 0 -6 10 2 15 12 17 11 17
-5 0 -16 2 -17 10 -4 5 8 10 11 10 5 0 -5 10 -11 23 -12 30 -2 97 -26 97 -35
0 -5 7 -8 15 -8 9 0 18 -7 22 -16 5 -13 7 -13 14 -2 7 10 9 10 9 -3 0 -12 7
-15 27 -11 18 3 31 -1 41 -14 10 -13 13 -14 9 -3 -4 13 3 16 39 15 24 -1 44
-4 44 -8 0 -4 7 -5 15 -2 25 10 87 -5 78 -19 -4 -7 0 -7 10 2 9 7 17 9 17 3 0
-5 10 -8 22 -4 16 4 19 2 13 -9 -6 -10 -5 -11 4 -3 15 14 71 5 78 -12 3 -8 9
-14 15 -14 5 0 6 5 3 11 -4 6 2 5 13 -2 12 -7 18 -17 15 -23 -4 -5 1 -7 12 -2
10 4 24 1 34 -8 13 -12 43 -21 84 -25 5 -1 5 -7 1 -13 -5 -9 -2 -9 9 1 16 13
22 8 18 -13 -1 -5 6 -3 15 5 13 10 18 11 21 2 2 -7 10 -10 17 -7 8 3 20 -2 29
-10 12 -12 17 -13 21 -3 5 9 7 9 12 0 3 -7 12 -9 20 -6 9 3 13 0 11 -8 -2 -8
-2 -11 0 -6 3 4 14 7 24 7 11 0 17 -4 14 -10 -3 -5 -2 -10 4 -10 5 0 12 6 14
13 4 9 7 9 14 0 13 -19 92 -10 137 15 5 3 6 -1 1 -9 -7 -11 -6 -12 7 -2 8 7
19 9 23 5 5 -4 5 -2 2 4 -4 7 0 15 9 18 10 4 13 2 9 -7 -4 -6 -1 -5 7 4 7 9
19 14 27 11 8 -3 11 0 7 7 -4 6 -3 11 2 11 5 0 22 11 37 24 16 14 33 24 38 23
5 -1 11 7 13 17 3 21 21 36 44 36 10 0 11 3 3 8 -14 9 1 32 32 50 11 6 14 12
8 12 -7 0 -13 4 -13 10 0 5 21 0 48 -12 26 -11 56 -25 67 -30 32 -14 94 0 123
29 8 7 19 10 25 6 7 -3 9 -3 5 1 -4 5 3 18 15 30 12 12 30 33 40 46 10 14 15
19 11 11 -5 -9 -3 -12 5 -7 6 4 9 11 6 16 -6 10 5 41 14 36 3 -2 7 10 8 27 2
18 10 37 18 43 13 9 13 13 3 17 -9 4 -7 6 4 6 11 1 15 6 12 15 -3 8 0 25 7 38
7 13 14 29 15 37 2 7 8 27 15 43 9 21 16 27 28 22 9 -4 31 -12 49 -19 18 -6
30 -14 27 -16 -2 -3 8 -5 23 -6 56 -1 63 -3 56 -14 -5 -8 -1 -8 13 0 11 6 23
7 27 4 9 -9 116 -10 116 -1 0 8 27 5 36 -4 3 -4 13 -4 22 -1 11 5 13 3 7 -7
-6 -9 -4 -11 5 -5 18 11 60 13 60 3 0 -4 11 -3 25 2 18 7 25 6 25 -3 0 -9 3
-8 9 1 4 8 19 13 32 11 13 -1 36 1 50 5 14 4 32 8 40 10 48 10 151 62 216 110
34 24 65 42 69 38 4 -4 4 -1 0 6 -5 8 1 16 16 21 13 6 20 10 15 10 -4 1 5 14
19 31 15 16 31 27 36 24 5 -3 7 -2 6 3 -4 14 23 54 32 48 6 -3 7 1 4 10 -8 19
14 47 29 38 6 -4 8 0 5 8 -3 8 3 32 13 54 10 21 19 42 19 46 0 4 5 20 11 36 7
15 13 35 15 43 12 67 24 101 24 68 0 -9 9 -18 21 -21 13 -3 19 -12 17 -24 -2
-10 2 -17 10 -15 7 1 22 -7 34 -18 12 -11 26 -20 30 -20 5 0 6 -5 2 -12 -4 -6
-3 -8 4 -5 13 8 44 -2 37 -12 -2 -4 12 -8 32 -9 20 -1 40 -7 45 -14 6 -10 8
-10 8 1 0 11 4 10 16 -5 8 -10 13 -14 10 -8 -9 17 94 10 106 -7 8 -11 9 -10 4
4 -6 20 5 22 22 5 7 -7 12 -8 12 -3 0 6 23 10 50 9 28 -1 53 3 56 8 3 5 13 1
21 -9 8 -10 12 -13 8 -6 -3 8 8 14 32 19 38 7 57 10 103 20 14 3 30 7 35 8 6
1 21 8 34 15 19 11 22 11 16 -1 -3 -7 1 -4 9 6 9 11 16 17 16 13 0 -3 23 7 50
23 48 28 50 29 39 7 -8 -16 -4 -14 13 7 14 16 30 26 36 22 6 -3 14 -1 18 5 5
8 2 10 -7 5 -8 -4 -5 0 6 8 11 9 27 23 37 30 9 8 19 12 22 9 3 -4 6 -1 6 6 0
7 5 9 10 6 6 -3 10 -1 10 4 0 17 33 50 43 44 6 -3 7 -1 3 6 -4 6 5 24 21 40
15 16 29 35 31 42 2 8 8 17 14 20 5 3 9 9 8 13 -3 14 24 75 31 70 4 -2 6 7 3
20 -2 14 1 29 8 33 7 4 13 14 14 21 1 6 2 24 3 38 1 17 5 23 14 18 8 -5 8 -2
-2 9 -8 11 -9 17 -3 17 7 0 9 7 5 17 -4 10 -2 14 5 9 6 -3 14 -1 18 5 4 7 3 9
-4 5 -6 -3 -13 -2 -17 4 -3 5 -2 10 4 10 6 0 8 7 4 16 -3 9 0 20 8 25 12 7 12
9 0 9 -9 0 -10 4 -5 13 5 6 9 29 9 50 -1 20 2 37 6 37 11 0 17 37 8 51 -5 8
-3 17 4 21 9 6 8 8 -2 8 -10 0 -11 3 -2 14 7 9 8 17 2 20 -5 3 -7 16 -4 29 4
18 3 19 -7 7 -9 -13 -11 -12 -9 5 1 11 0 22 -1 25 -1 3 -4 16 -6 30 -2 14 -5
32 -7 40 -1 8 -8 25 -15 37 -6 12 -9 30 -6 40 4 13 3 14 -4 5 -7 -11 -10 -10
-16 3 -3 9 -4 21 -1 26 4 5 -1 6 -9 3 -16 -6 -40 28 -28 40 3 4 -2 4 -13 0
-15 -6 -17 -4 -12 10 4 9 3 15 -2 12 -13 -9 -54 31 -45 45 4 8 3 9 -4 5 -7 -4
-22 3 -34 15 -13 12 -17 18 -9 14 10 -5 12 -4 7 4 -4 6 -11 9 -15 6 -12 -7
-43 30 -34 40 5 4 3 5 -3 2 -10 -6 -56 27 -105 75 -10 9 -20 14 -23 11 -6 -6
-10 14 -6 32 1 5 -2 7 -6 2 -14 -14 -107 59 -97 76 3 6 1 7 -5 3 -7 -4 -23 3
-36 16 -13 13 -32 28 -42 34 -11 6 -19 17 -19 25 -1 8 -6 13 -13 12 -12 -3
-45 21 -94 70 -15 15 -30 27 -34 27 -4 0 -19 13 -34 28 -14 16 -33 26 -41 23
-12 -4 -12 -1 1 15 8 10 10 16 6 12 -5 -4 -16 -2 -24 5 -13 10 -14 9 -7 -2 5
-10 4 -12 -3 -7 -7 4 -12 14 -12 22 0 8 -3 14 -8 14 -4 0 -20 11 -35 25 -15
14 -27 22 -27 18 0 -4 -5 0 -11 10 -5 9 -14 17 -20 17 -15 0 -54 43 -54 60 0
8 17 41 37 72 21 32 41 70 44 85 9 36 44 106 57 115 6 4 15 4 21 1 5 -3 32 -8
59 -10 28 -2 58 -9 66 -16 11 -9 13 -9 8 0 -5 8 0 11 13 10 11 -1 20 -5 20 -9
0 -5 15 -2 34 6 19 8 38 11 42 8 4 -4 3 -1 -1 7 -6 11 -4 13 9 8 9 -4 14 -3
11 2 -6 11 15 61 26 61 5 0 7 14 5 30 -2 17 0 30 4 30 4 0 11 7 14 16 4 10 2
13 -7 8 -9 -6 -9 -4 -1 7 6 8 11 35 10 62 -1 50 2 54 24 35 8 -7 6 -3 -4 10
-11 12 -16 22 -11 22 4 0 1 8 -6 17 -8 9 -9 14 -3 10 7 -4 15 0 18 9 9 22 8
24 -11 24 -16 1 -16 2 -2 10 20 12 19 56 -1 52 -11 -3 -10 1 3 16 11 12 16 30
13 50 -2 17 2 33 8 36 6 2 5 5 -3 5 -11 1 -10 5 5 17 10 8 13 12 5 8 -11 -5
-13 -3 -8 9 3 9 1 19 -5 23 -7 5 -5 12 7 21 14 9 15 13 4 13 -12 0 -12 2 1 10
13 9 13 10 0 10 -13 0 -13 1 0 10 8 5 10 10 3 10 -6 0 -10 8 -8 18 1 9 -2 26
-8 37 -9 18 -9 19 8 5 17 -14 18 -14 5 10 -7 14 -13 27 -13 30 -1 11 -25 29
-31 22 -4 -3 -4 2 0 12 5 14 4 17 -5 12 -15 -10 -43 12 -34 27 4 6 1 7 -8 1
-21 -13 -39 -14 -39 -2 0 6 -9 8 -21 5 -15 -4 -19 -2 -15 9 5 12 2 12 -15 3
-14 -7 -24 -8 -28 -1 -3 5 -18 8 -34 6 -19 -2 -30 3 -38 18 -8 16 -8 19 1 13
7 -4 5 4 -4 18 -13 20 -14 26 -4 30 7 3 8 6 2 6 -5 1 -9 16 -8 33 1 18 -2 38
-7 45 -7 7 -6 14 2 19 7 4 9 3 6 -3 -3 -5 0 -10 7 -10 11 0 12 4 3 18 -6 10
-16 15 -22 11 -5 -3 -5 1 2 9 8 9 9 20 3 29 -8 13 -10 13 -10 1 0 -8 -3 -11
-6 -8 -4 4 -2 12 4 19 11 14 -10 43 -22 31 -3 -4 -6 1 -6 11 0 11 -4 15 -12
10 -9 -5 -8 -2 1 9 12 15 12 17 -4 10 -15 -5 -17 -3 -12 12 7 16 5 16 -9 4
-15 -12 -16 -11 -10 11 4 14 4 20 -1 14 -12 -16 -83 -12 -83 4 0 7 -5 10 -10
7 -6 -4 -8 -11 -5 -16 4 -5 -3 -6 -17 0 -13 4 -29 6 -37 3 -9 -3 -11 0 -6 8 5
9 2 10 -14 5 -14 -4 -21 -2 -21 7 0 10 -2 10 -9 -1 -5 -8 -14 -10 -22 -5 -8 4
-25 8 -39 8 -14 0 -28 4 -32 10 -5 7 -8 3 -8 -9 0 -12 -3 -16 -8 -9 -9 13 -45
27 -37 15 3 -5 0 -13 -6 -17 -8 -4 -9 -3 -5 4 5 8 -1 12 -14 12 -14 0 -19 4
-14 13 6 10 4 10 -7 0 -14 -14 -33 -18 -26 -5 3 4 -6 8 -19 8 -14 1 -21 -2
-17 -9 4 -6 1 -7 -8 -1 -22 13 -51 16 -44 3 5 -6 -2 -6 -16 2 -50 26 -57 27
-68 16 -8 -8 -11 -7 -11 3 0 13 -2 13 -9 1 -8 -12 -12 -12 -25 -2 -13 11 -16
11 -16 0 0 -12 -2 -12 -9 -1 -9 16 -20 15 -40 -1 -11 -9 -13 -9 -8 -1 4 7 0
14 -8 18 -8 3 -15 1 -15 -5 0 -6 -6 -6 -19 0 -10 6 -21 7 -25 4 -3 -3 -6 -1
-6 7 0 10 -3 10 -16 -1 -9 -7 -18 -9 -22 -3 -4 5 -16 16 -27 24 -18 14 -19 14
-7 -1 10 -14 10 -18 -3 -23 -9 -3 -14 -2 -11 3 3 5 -18 9 -46 10 -28 0 -55 6
-59 12 -5 8 -8 7 -12 -2 -5 -12 -7 -12 -15 0 -7 9 -12 10 -16 2 -4 -6 -13 -8
-19 -4 -12 7 -31 10 -89 14 -17 1 -25 6 -21 13 5 8 3 8 -8 0 -8 -5 -23 -9 -34
-8 -11 2 -49 6 -84 9 -36 3 -68 11 -73 17 -6 10 -8 10 -8 1 0 -20 -30 -15 -31
5 0 14 -2 14 -9 -3 -6 -13 -9 -15 -9 -5 -1 12 -3 12 -10 2 -6 -11 -11 -10 -25
3 -9 9 -16 12 -16 7 0 -12 -39 -4 -59 12 -11 8 -13 8 -7 -1 5 -9 -1 -13 -18
-13 -14 0 -26 6 -26 13 0 8 -4 7 -10 -3 -9 -13 -10 -13 -10 0 0 13 -1 13 -10
0 -5 -8 -10 -10 -10 -4 0 6 -16 11 -35 12 -62 3 -70 5 -77 16 -6 8 -8 8 -8 0
0 -6 -10 -11 -22 -10 -13 1 -22 7 -21 12 1 6 -4 11 -12 11 -7 0 -11 -7 -7 -15
4 -11 2 -13 -9 -6 -8 5 -22 9 -31 10 -10 1 -20 2 -23 4 -3 1 -20 2 -37 2 -18
1 -39 6 -47 12 -12 9 -13 8 -7 -3 7 -10 3 -11 -15 -5 -23 7 -43 10 -154 17
-27 2 -56 -1 -64 -7 -12 -9 -12 -7 -1 14 11 21 11 23 -1 15 -12 -9 -72 -12
-89 -5 -3 1 -8 2 -12 1 -5 0 -8 5 -8 12 0 7 -7 4 -15 -7 -14 -18 -15 -18 -15
-2 0 9 -5 14 -10 11 -6 -4 -8 -12 -4 -18 3 -7 -2 -3 -11 8 -18 22 -24 23 -36
3 -5 -7 -9 -8 -9 -2 0 12 -5 13 -77 14 -27 1 -51 7 -55 13 -6 9 -8 9 -8 -1 0
-9 -5 -10 -19 -3 -10 6 -21 8 -24 5 -3 -3 -15 0 -27 6 -16 9 -20 9 -15 1 8
-14 -43 -4 -64 13 -11 8 -13 8 -8 0 4 -7 0 -14 -8 -18 -9 -3 -15 0 -15 8 0 10
-14 13 -54 11 -30 -2 -60 -6 -67 -11 -9 -5 -10 -2 -6 9 8 21 6 21 -17 0z
m-1916 -1409 c0 -8 -19 -13 -24 -6 -3 5 1 9 9 9 8 0 15 -2 15 -3z"/>
<path d="M5855 4939 c-4 -6 -5 -12 -2 -15 2 -3 7 2 10 11 7 17 1 20 -8 4z"/>
<path d="M944 4752 c3 -5 0 -13 -6 -15 -9 -4 -10 -6 -1 -6 17 -1 25 16 12 25
-7 4 -9 3 -5 -4z"/>
<path d="M675 4180 c3 -5 8 -10 11 -10 2 0 4 5 4 10 0 6 -5 10 -11 10 -5 0 -7
-4 -4 -10z"/>
<path d="M520 4095 c-7 -8 -8 -15 -2 -15 5 0 15 7 22 15 7 8 8 15 2 15 -5 0
-15 -7 -22 -15z"/>
<path d="M403 4009 c-2 -23 3 -25 10 -4 4 8 3 16 -1 19 -4 3 -9 -4 -9 -15z"/>
<path d="M6280 2155 c-7 -9 -11 -17 -9 -20 3 -2 10 5 17 15 14 24 10 26 -8 5z"/>
<path d="M273 1945 c0 -8 4 -12 9 -9 5 3 6 10 3 15 -9 13 -12 11 -12 -6z"/>
<path d="M355 1740 c-3 -5 -1 -10 4 -10 6 0 11 5 11 10 0 6 -2 10 -4 10 -3 0
-8 -4 -11 -10z"/>
</g>
</svg>
